<?xml version="1.0" standalone="no"?>
<!DOCTYPE svg PUBLIC "-//W3C//DTD SVG 20010904//EN"
 "http://www.w3.org/TR/2001/REC-SVG-20010904/DTD/svg10.dtd">
<svg version="1.0" xmlns="http://www.w3.org/2000/svg"
 width="566.000000pt" height="566.000000pt" viewBox="0 0 566.000000 566.000000"
 preserveAspectRatio="xMidYMid meet">
<metadata>
Created by potrace 1.13, written by Peter Selinger 2001-2015
</metadata>
<g transform="translate(0.000000,566.000000) scale(0.100000,-0.100000)"
fill="#FFF" stroke="none">
<path d="M1768 4450 c-172 -30 -338 -116 -438 -228 -139 -155 -409 -617 -547
-937 -313 -723 -414 -1303 -291 -1670 84 -251 288 -385 588 -388 273 -2 460
104 799 455 111 115 272 260 351 316 78 56 206 118 292 142 63 17 102 20 293
20 257 0 332 -13 467 -81 153 -76 222 -133 518 -430 277 -278 376 -352 555
-415 72 -25 93 -28 215 -28 98 -1 153 4 200 17 224 60 360 206 422 452 32 130
32 413 -1 600 -90 512 -319 1097 -634 1620 -62 102 -126 199 -180 270 -89 117
-240 219 -397 267 l-75 23 -1045 1 c-575 1 -1066 -2 -1092 -6z m2073 -580 c26
0 103 -57 123 -91 86 -146 -29 -325 -196 -306 -99 12 -178 100 -178 197 0 59
39 138 82 167 37 25 103 43 133 37 11 -2 27 -4 36 -4z m-1862 -39 c76 -45 99
-112 101 -293 0 -16 11 -18 93 -18 79 0 101 -4 138 -23 144 -76 143 -283 -2
-357 -30 -16 -59 -20 -132 -20 l-94 0 -6 -100 c-7 -117 -28 -166 -88 -210 -72
-52 -160 -50 -240 5 -58 41 -79 96 -79 210 l0 95 -103 0 c-97 0 -106 2 -150
29 -112 72 -126 221 -29 313 49 47 87 58 193 58 l89 0 0 93 c1 141 46 216 147
242 62 16 107 9 162 -24z m1524 -322 c51 -14 111 -77 127 -133 26 -93 -17
-194 -102 -237 -59 -30 -150 -24 -207 14 -83 55 -112 179 -61 262 29 48 43 60
95 85 45 22 92 25 148 9z m737 -11 c26 -14 57 -41 75 -66 26 -38 30 -52 30
-112 0 -60 -4 -74 -30 -112 -43 -62 -103 -90 -181 -86 -134 8 -213 119 -179
250 31 121 172 183 285 126z m-355 -355 c71 -36 105 -94 105 -178 0 -65 -24
-120 -69 -158 -36 -30 -119 -52 -165 -43 -56 11 -121 59 -145 108 -84 175 100
358 274 271z"/>
</g>
</svg>
