<?xml version="1.0" standalone="no"?>
<!DOCTYPE svg PUBLIC "-//W3C//DTD SVG 20010904//EN"
 "http://www.w3.org/TR/2001/REC-SVG-20010904/DTD/svg10.dtd">
<svg version="1.0" xmlns="http://www.w3.org/2000/svg"
 width="512.000000pt" height="512.000000pt" viewBox="0 0 512.000000 512.000000"
 preserveAspectRatio="xMidYMid meet">
<metadata>
Created by potrace 1.13, written by Peter Selinger 2001-2015
</metadata>
<g transform="translate(0.000000,512.000000) scale(0.100000,-0.100000)"
fill="#FFF" stroke="none">
<path d="M4215 5013 c-11 -2 -587 -122 -1280 -265 -835 -172 -1275 -267 -1304
-281 -25 -12 -54 -35 -65 -50 -21 -28 -21 -36 -26 -1500 -5 -1384 -6 -1475
-23 -1517 -50 -126 -150 -164 -472 -181 -244 -13 -360 -34 -469 -87 -136 -66
-208 -145 -246 -270 -38 -123 -21 -310 42 -441 39 -82 138 -184 223 -228 231
-121 643 -118 899 6 154 75 257 188 324 355 15 37 17 170 22 1441 6 1596 -3
1452 93 1479 109 32 2034 448 2075 449 64 3 78 -20 87 -135 12 -167 1 -1829
-13 -1868 -16 -48 -54 -99 -92 -122 -50 -30 -144 -46 -310 -53 -293 -12 -434
-36 -565 -99 -167 -80 -245 -210 -245 -409 1 -318 230 -550 600 -607 94 -14
317 -14 389 -1 235 46 394 164 481 356 64 140 60 6 60 2046 l0 1855 -22 44
c-31 61 -103 97 -163 83z"/>
</g>
</svg>
